<svg width="104" height="104" viewBox="0 0 104 104" fill="none" xmlns="http://www.w3.org/2000/svg">
<path d="M0 52C0 23.2812 23.2812 0 52 0C80.7188 0 104 23.2812 104 52C104 80.7188 80.7188 104 52 104C23.2812 104 0 80.7188 0 52Z" fill="#86EFCC"/>
<path d="M78.6655 38.6673L54.6905 53.9386C53.877 54.4112 52.9528 54.6601 52.012 54.6601C51.0711 54.6601 50.147 54.4112 49.3334 53.9386L25.3345 38.6673" stroke="white" stroke-width="5.3327" stroke-linecap="round" stroke-linejoin="round"/>
<path d="M73.3324 30.6676H30.6676C27.7222 30.6676 25.3345 33.0553 25.3345 36.0007V67.9994C25.3345 70.9448 27.7222 73.3325 30.6676 73.3325H73.3324C76.2778 73.3325 78.6655 70.9448 78.6655 67.9994V36.0007C78.6655 33.0553 76.2778 30.6676 73.3324 30.6676Z" stroke="white" stroke-width="5.3327" stroke-linecap="round" stroke-linejoin="round"/>
</svg>
