<svg width="80" height="80" viewBox="0 0 80 80" fill="none" xmlns="http://www.w3.org/2000/svg">
<path d="M0 40C0 17.9086 17.9086 0 40 0C62.0914 0 80 17.9086 80 40C80 62.0914 62.0914 80 40 80C17.9086 80 0 62.0914 0 40Z" fill="#86EFCC"/>
<path d="M47.9976 30.0029C47.9976 32.124 47.155 34.1583 45.6552 35.6581C44.1553 37.158 42.1211 38.0006 40 38.0006C37.8789 38.0006 35.8447 37.158 34.3448 35.6581C32.845 34.1583 32.0024 32.124 32.0024 30.0029C32.0024 27.8818 32.845 25.8476 34.3448 24.3478C35.8447 22.8479 37.8789 22.0053 40 22.0053C42.1211 22.0053 44.1553 22.8479 45.6552 24.3478C47.155 25.8476 47.9976 27.8818 47.9976 30.0029ZM40 43.9988C36.2881 43.9988 32.7282 45.4733 30.1034 48.0981C27.4787 50.7228 26.0042 54.2827 26.0042 57.9946H53.9958C53.9958 54.2827 52.5213 50.7228 49.8966 48.0981C47.2718 45.4733 43.7119 43.9988 40 43.9988Z" stroke="white" stroke-width="3.99878" stroke-linecap="round" stroke-linejoin="round"/>
</svg>
