<svg width="20" height="20" viewBox="0 0 20 20" fill="none" xmlns="http://www.w3.org/2000/svg">
<path d="M1.71833 10.29C1.64888 10.1029 1.64888 9.89705 1.71833 9.70995C2.39474 8.06983 3.54292 6.66749 5.0173 5.68071C6.49168 4.69392 8.22585 4.16714 9.99998 4.16714C11.7741 4.16714 13.5083 4.69392 14.9827 5.68071C16.457 6.66749 17.6052 8.06983 18.2816 9.70995C18.3511 9.89705 18.3511 10.1029 18.2816 10.29C17.6052 11.9301 16.457 13.3324 14.9827 14.3192C13.5083 15.306 11.7741 15.8328 9.99998 15.8328C8.22585 15.8328 6.49168 15.306 5.0173 14.3192C3.54292 13.3324 2.39474 11.9301 1.71833 10.29Z" stroke="#6A7282" stroke-width="1.66665" stroke-linecap="round" stroke-linejoin="round"/>
<path d="M9.99998 12.5C11.3807 12.5 12.5 11.3807 12.5 9.99998C12.5 8.61927 11.3807 7.49998 9.99998 7.49998C8.61927 7.49998 7.49998 8.61927 7.49998 9.99998C7.49998 11.3807 8.61927 12.5 9.99998 12.5Z" stroke="#6A7282" stroke-width="1.66665" stroke-linecap="round" stroke-linejoin="round"/>
</svg>
